<?xml version="1.0" encoding="UTF-8" standalone="no"?><!-- Generator: Gravit.io --><svg xmlns="http://www.w3.org/2000/svg" xmlns:xlink="http://www.w3.org/1999/xlink" style="isolation:isolate" viewBox="0 0 568.001 568.001" width="568.001pt" height="568.001pt"><defs><clipPath id="_clipPath_C9lvCnGjEoMapA6EYJO7sh4Y3TKGo4Mp"><rect width="568.001" height="568.001"/></clipPath></defs><g clip-path="url(#_clipPath_C9lvCnGjEoMapA6EYJO7sh4Y3TKGo4Mp)"><g><path d="M 117.444 0.001 L 450.556 0.001 C 515.375 0.001 568 52.626 568 117.444 L 568 450.557 C 568 515.376 515.375 568.001 450.556 568.001 L 117.444 568.001 C 52.625 568.001 0 515.376 0 450.557 L 0 117.444 C 0 52.626 52.625 0.001 117.444 0.001 Z" style="stroke:none;fill:#FFD392;stroke-miterlimit:10;"/><mask id="_mask_WF0wJoHPMMDRZRg50x4niZo8i7AHAT44"><path d=" M 359.271 401.155 Q 379.025 369.946 384.094 362.194 Q 389.162 354.441 389.833 353.696 Q 390.877 348.701 392.666 343.856 C 394.455 339.011 397.66 318.064 399.449 316.424 C 401.238 314.784 403.549 315.53 403.847 316.946 Q 404.146 318.362 404.667 324.144 Q 410.556 300.621 411.525 297.341 C 412.494 294.061 413.836 292.347 414.582 291.378 C 415.327 290.409 418.16 290.856 418.458 293.241 Q 418.756 295.627 418.458 301.143 Q 423.378 281.538 425.838 277.215 C 428.298 272.891 429.565 271.922 431.279 272.891 C 432.994 273.86 433.143 275.947 433.292 277.215 Q 433.441 278.482 433.292 279.376 Q 446.436 239.049 481.82 206.846 C 517.203 174.643 540.858 166.096 548.014 170.668 C 555.17 175.24 546.821 199.292 509.053 246.006 Q 471.284 292.72 456.972 301.143 Q 466.381 295.304 467.574 298.285 C 468.766 301.267 469.164 301.996 452.665 314.055 Q 436.166 326.115 427.42 333.669 Q 433.184 332.873 433.847 334.662 C 434.51 336.452 433.118 338.87 425.366 343.856 Q 417.613 348.842 415.559 349.902 Q 418.458 350.664 418.06 352.553 C 417.663 354.441 417.315 354.839 410.556 358.268 C 403.798 361.697 400.12 364.281 399.126 364.778 Q 398.133 365.275 395.35 365.722 Q 385.013 379.687 381.584 383.314 Q 378.155 386.942 378.354 387.687 Q 417.017 365.407 433.847 363.817 C 450.677 362.227 451.207 368.72 455.315 375.744 C 459.423 382.768 475.193 381.442 495.337 373.094 Q 515.48 364.745 525.905 358.268 L 527.937 362.194 Q 501.168 376.672 479.832 382.635 C 458.496 388.599 452.93 382.105 450.147 374.419 C 447.364 366.733 437.027 366.07 417.282 373.094 C 397.536 380.117 376.333 393.634 369.309 398.273 Q 362.286 402.911 362.816 403.838 L 359.271 401.155 Z " fill="white" stroke="none"/></mask><path d=" M 359.271 401.155 Q 379.025 369.946 384.094 362.194 Q 389.162 354.441 389.833 353.696 Q 390.877 348.701 392.666 343.856 C 394.455 339.011 397.66 318.064 399.449 316.424 C 401.238 314.784 403.549 315.53 403.847 316.946 Q 404.146 318.362 404.667 324.144 Q 410.556 300.621 411.525 297.341 C 412.494 294.061 413.836 292.347 414.582 291.378 C 415.327 290.409 418.16 290.856 418.458 293.241 Q 418.756 295.627 418.458 301.143 Q 423.378 281.538 425.838 277.215 C 428.298 272.891 429.565 271.922 431.279 272.891 C 432.994 273.86 433.143 275.947 433.292 277.215 Q 433.441 278.482 433.292 279.376 Q 446.436 239.049 481.82 206.846 C 517.203 174.643 540.858 166.096 548.014 170.668 C 555.17 175.24 546.821 199.292 509.053 246.006 Q 471.284 292.72 456.972 301.143 Q 466.381 295.304 467.574 298.285 C 468.766 301.267 469.164 301.996 452.665 314.055 Q 436.166 326.115 427.42 333.669 Q 433.184 332.873 433.847 334.662 C 434.51 336.452 433.118 338.87 425.366 343.856 Q 417.613 348.842 415.559 349.902 Q 418.458 350.664 418.06 352.553 C 417.663 354.441 417.315 354.839 410.556 358.268 C 403.798 361.697 400.12 364.281 399.126 364.778 Q 398.133 365.275 395.35 365.722 Q 385.013 379.687 381.584 383.314 Q 378.155 386.942 378.354 387.687 Q 417.017 365.407 433.847 363.817 C 450.677 362.227 451.207 368.72 455.315 375.744 C 459.423 382.768 475.193 381.442 495.337 373.094 Q 515.48 364.745 525.905 358.268 L 527.937 362.194 Q 501.168 376.672 479.832 382.635 C 458.496 388.599 452.93 382.105 450.147 374.419 C 447.364 366.733 437.027 366.07 417.282 373.094 C 397.536 380.117 376.333 393.634 369.309 398.273 Q 362.286 402.911 362.816 403.838 L 359.271 401.155 Z " fill="rgb(74,134,232)"/><path d=" M 359.271 401.155 Q 379.025 369.946 384.094 362.194 Q 389.162 354.441 389.833 353.696 Q 390.877 348.701 392.666 343.856 C 394.455 339.011 397.66 318.064 399.449 316.424 C 401.238 314.784 403.549 315.53 403.847 316.946 Q 404.146 318.362 404.667 324.144 Q 410.556 300.621 411.525 297.341 C 412.494 294.061 413.836 292.347 414.582 291.378 C 415.327 290.409 418.16 290.856 418.458 293.241 Q 418.756 295.627 418.458 301.143 Q 423.378 281.538 425.838 277.215 C 428.298 272.891 429.565 271.922 431.279 272.891 C 432.994 273.86 433.143 275.947 433.292 277.215 Q 433.441 278.482 433.292 279.376 Q 446.436 239.049 481.82 206.846 C 517.203 174.643 540.858 166.096 548.014 170.668 C 555.17 175.24 546.821 199.292 509.053 246.006 Q 471.284 292.72 456.972 301.143 Q 466.381 295.304 467.574 298.285 C 468.766 301.267 469.164 301.996 452.665 314.055 Q 436.166 326.115 427.42 333.669 Q 433.184 332.873 433.847 334.662 C 434.51 336.452 433.118 338.87 425.366 343.856 Q 417.613 348.842 415.559 349.902 Q 418.458 350.664 418.06 352.553 C 417.663 354.441 417.315 354.839 410.556 358.268 C 403.798 361.697 400.12 364.281 399.126 364.778 Q 398.133 365.275 395.35 365.722 Q 385.013 379.687 381.584 383.314 Q 378.155 386.942 378.354 387.687 Q 417.017 365.407 433.847 363.817 C 450.677 362.227 451.207 368.72 455.315 375.744 C 459.423 382.768 475.193 381.442 495.337 373.094 Q 515.48 364.745 525.905 358.268 L 527.937 362.194 Q 501.168 376.672 479.832 382.635 C 458.496 388.599 452.93 382.105 450.147 374.419 C 447.364 366.733 437.027 366.07 417.282 373.094 C 397.536 380.117 376.333 393.634 369.309 398.273 Q 362.286 402.911 362.816 403.838 L 359.271 401.155 Z " fill="rgb(74,134,232)" mask="url(#_mask_WF0wJoHPMMDRZRg50x4niZo8i7AHAT44)" vector-effect="non-scaling-stroke" stroke-width="10" stroke="rgb(0,0,0)" stroke-linejoin="round" stroke-linecap="square" stroke-miterlimit="3"/><path d=" M 356.979 273.938 L 356.979 273.938 L 392.912 264.497 L 392.912 264.497 C 394.487 264.118 406.155 260.607 406.763 263.131 L 406.763 263.131 L 406.763 263.131 L 406.763 263.131 Q 407.928 267.971 354.471 284.783 L 354.471 284.783 L 354.471 284.783 C 347.226 314.899 334.542 354.138 342.081 385.448 L 342.081 385.448 L 342.081 385.448 L 342.081 385.448 C 343.819 392.666 347.886 402.169 357.002 399.974 L 357.002 399.974 L 357.002 399.974 L 357.002 399.974 C 360.833 399.051 363.769 395.463 366.03 392.483 L 366.03 392.483 L 366.03 392.483 L 366.03 392.483 C 367.404 390.67 369.831 386.25 372.265 385.664 L 372.265 385.664 L 372.265 385.664 L 372.265 385.664 C 373.281 385.419 373.81 386.355 374.016 387.211 L 374.016 387.211 L 374.016 387.211 L 374.016 387.211 C 373.816 392.998 369.631 397.68 365.351 401.114 L 365.351 401.114 L 365.351 401.114 L 365.351 401.114 C 360.952 404.644 355.986 408.096 350.418 409.437 L 350.418 409.437 L 350.418 409.437 L 350.418 409.437 C 347.005 410.259 343.519 411.021 340.001 411.158 L 340.001 411.158 L 340.001 411.158 L 340.001 411.158 C 331.088 410.061 327.629 399.035 325.866 391.717 L 325.866 391.717 L 325.866 391.717 L 325.866 391.717 C 317.836 358.372 324.075 321.966 331.492 289.135 L 331.492 289.135 L 331.492 289.135 L 287.086 301.01 L 287.086 301.01 C 263.06 339.298 236.751 376.218 207.56 410.753 L 207.56 410.753 L 207.56 410.753 L 207.56 410.753 C 180.993 441.952 145.634 483.566 103.096 493.81 L 103.096 493.81 L 103.096 493.81 L 103.096 493.81 C 101.35 494.23 99.582 494.523 97.794 494.693 L 97.794 494.693 L 97.794 494.693 L 97.794 494.693 C 62.649 500.08 34.854 485.215 26.296 449.677 L 26.296 449.677 L 26.296 449.677 L 26.296 449.677 C 20.526 425.715 23.437 400.539 30.083 377.079 L 30.083 377.079 L 30.083 377.079 L 30.083 377.079 C 40.439 340.527 59.172 306.893 83.835 278.073 L 83.835 278.073 L 83.835 278.073 L 83.835 278.073 C 103.698 254.862 128.536 231.662 159.115 224.298 L 159.115 224.298 L 159.115 224.298 L 159.115 224.298 C 177.281 219.924 197.477 221.677 202.516 242.6 L 202.516 242.6 L 202.516 242.6 L 202.516 242.6 C 205.934 256.792 204.373 271.805 201.119 285.869 L 201.119 285.869 L 201.119 285.869 L 201.119 285.869 C 198.43 297.493 194.65 311.484 185.223 319.632 L 185.223 319.632 L 185.223 319.632 L 185.223 319.632 C 184.503 320.081 183.716 320.389 182.893 320.587 L 182.893 320.587 L 182.893 320.587 L 182.893 320.587 C 182.411 320.703 181.567 320.804 181.411 320.156 L 181.411 320.156 L 181.411 320.156 L 188.855 297.094 L 188.855 297.094 C 192.955 285.282 196.175 271.881 193.175 259.423 L 193.175 259.423 L 193.175 259.423 L 193.175 259.423 C 191.161 251.06 187.492 242.713 180.878 236.979 L 180.878 236.979 L 180.878 236.979 L 180.878 236.979 C 174.487 231.439 165.942 230.926 158.019 232.834 L 158.019 232.834 L 158.019 232.834 L 158.019 232.834 C 132.13 239.068 111.976 261.799 96.387 281.943 L 96.387 281.943 L 96.387 281.943 L 96.387 281.943 C 74.978 309.607 60.486 342.003 54.145 376.406 L 54.145 376.406 L 54.145 376.406 L 54.145 376.406 C 49.502 401.594 44.749 429.801 50.861 455.184 L 50.861 455.184 L 50.861 455.184 L 50.861 455.184 C 56.961 480.515 75.935 491.291 101.034 485.247 L 101.034 485.247 L 101.034 485.247 L 101.034 485.247 C 139.5 475.984 170.412 438.713 194.006 410.078 L 194.006 410.078 L 194.006 410.078 L 194.006 410.078 C 221.707 376.721 245.603 339.995 269.692 304.017 L 269.692 304.017 L 269.692 304.017 L 269.692 304.017 C 261.702 306.431 253.806 309.188 246.121 312.451 L 246.121 312.451 L 246.121 312.451 L 246.121 312.451 C 244.639 313.115 223.364 323.364 223.425 316.341 L 223.425 316.341 L 223.425 316.341 L 223.425 316.341 C 222.347 308.008 225.768 301.203 234.255 299.159 L 234.255 299.159 L 234.255 299.159 L 234.255 299.159 C 248.355 297.52 262.482 295.513 276.296 292.186 L 276.296 292.186 L 276.296 292.186 L 276.296 292.186 C 302.253 253.542 325.497 213.019 348.754 172.722 L 348.754 172.722 L 348.754 172.722 L 348.754 172.722 Q 380.72 117.365 390.027 115.124 L 390.027 115.124 L 390.027 115.124 C 393.433 114.304 394.991 117.747 395.646 120.467 L 395.646 120.467 L 395.646 120.467 L 395.646 120.467 C 397.246 127.112 397.106 134.22 397.047 141.005 L 397.047 141.005 L 397.047 141.005 L 397.047 141.005 C 397 146.496 397.388 154.67 393.546 159.179 L 393.546 159.179 L 393.546 159.179 L 393.546 159.179 C 388.328 165.049 384.431 171.997 381.438 179.228 L 381.438 179.228 L 381.438 179.228 L 381.438 179.228 C 375.717 193.048 372.693 208.145 369.451 222.684 L 369.451 222.684 L 369.451 222.684 L 369.451 222.684 C 365.626 239.844 361.652 256.986 356.979 273.938 L 356.979 273.938 Z  M 364.887 175.927 L 364.887 175.927 L 291.098 288.228 L 313.063 282.938 L 313.063 282.938 C 319.311 281.745 326.386 280.124 332.512 278.649 L 332.512 278.649 L 332.512 278.649 L 332.512 278.649 C 340.825 243.822 353.43 209.797 364.887 175.927 L 364.887 175.927 Z " fill-rule="evenodd" fill="rgb(0,0,0)"/><mask id="_mask_WV5ZGQbHXDCZkFP7lJIb1jdi46Nje209"><path d=" M 392.912 362.194 C 459.837 281.262 504.653 222.713 512.233 204.461 C 474.726 233.891 429.952 289.65 392.912 353.696 L 378.354 377.079 L 388.392 370.311 L 392.912 362.194 Z " fill="white" stroke="none"/></mask><path d=" M 392.912 362.194 C 459.837 281.262 504.653 222.713 512.233 204.461 C 474.726 233.891 429.952 289.65 392.912 353.696 L 378.354 377.079 L 388.392 370.311 L 392.912 362.194 Z " fill="rgb(81,63,36)"/><path d=" M 392.912 362.194 C 459.837 281.262 504.653 222.713 512.233 204.461 C 474.726 233.891 429.952 289.65 392.912 353.696 L 378.354 377.079 L 388.392 370.311 L 392.912 362.194 Z " fill="rgb(81,63,36)" mask="url(#_mask_WV5ZGQbHXDCZkFP7lJIb1jdi46Nje209)" vector-effect="non-scaling-stroke" stroke-width="10" stroke="rgb(0,0,0)" stroke-linejoin="miter" stroke-linecap="square" stroke-miterlimit="3"/></g></g></svg>